<svg width="100" height="100" viewBox="388 4 100 100" xmlns="http://www.w3.org/2000/svg"><g fill="none" fill-rule="evenodd"><path d="M437.817 103.55c-27.47 0-49.817-22.329-49.817-49.774C388 26.329 410.347 4 437.817 4c27.469 0 49.817 22.33 49.817 49.776 0 27.445-22.348 49.774-49.817 49.774" fill="#FFF"/><path d="M437.817 11.382c-23.395 0-42.429 19.018-42.429 42.394 0 23.375 19.034 42.392 42.429 42.392 23.395 0 42.429-19.017 42.429-42.392 0-23.376-19.034-42.394-42.43-42.394m0 92.168C410.348 103.55 388 81.221 388 53.776 388 26.329 410.347 4 437.817 4c27.469 0 49.817 22.33 49.817 49.776 0 27.445-22.348 49.774-49.817 49.774" fill="#000"/><path d="M437.817 22.033a31.64 31.64 0 0 0-19.343 6.57 11.46 11.46 0 0 1 2.278 6.875c0 6.363-5.162 11.52-11.53 11.52a11.59 11.59 0 0 1-2.384-.247c-.511 2.26-.79 4.609-.79 7.024 0 17.53 14.223 31.742 31.769 31.742 17.545 0 31.769-14.211 31.769-31.742 0-17.53-14.224-31.742-31.77-31.742" fill="#000"/></g></svg>