<svg width="100" height="19" xmlns="http://www.w3.org/2000/svg" xmlns:xlink="http://www.w3.org/1999/xlink"><defs><path id="a" d="M0 0h99.96v18.333H0z"/></defs><g fill="none" fill-rule="evenodd"><mask id="b" fill="#fff"><use xlink:href="#a"/></mask><path d="M75.558 4.232c-.003.056-.016.113-.007.166.018.095.048.188.073.283.086-.06.193-.105.254-.184.339-.437.668-.88.996-1.324.2-.27.244-.555.044-.844-.178-.256-.434-.339-.728-.26-.339.09-.475.345-.502.678-.04.496-.087.99-.13 1.485M55.816 9.995c0-1.466-1.183-2.67-2.638-2.684-1.447-.014-2.658 1.182-2.678 2.644-.021 1.524 1.157 2.712 2.68 2.702 1.487-.01 2.636-1.169 2.636-2.662m-43.692 3.798c0 1.285.008 2.57-.003 3.854-.005.637-.044.663-.66.681a12.65 12.65 0 0 1-.754 0c-.611-.02-.648-.043-.65-.69-.01-1.872-.004-3.743-.004-5.614 0-.224.003-.447-.006-.67-.003-.08-.04-.158-.061-.236-.09.036-.204.049-.27.112-.742.718-1.479 1.443-2.216 2.167-.997.98-2.196 1.39-3.585 1.282a4.334 4.334 0 0 1-3.858-3.32c-.133-.578-.066-.668.542-.729.112-.011.223-.013.335-.02.884-.057.884-.057 1.28.738a2.387 2.387 0 0 0 2.834 1.212c1.077-.33 1.737-1.32 1.624-2.436-.11-1.093-1.025-1.955-2.225-2.003-1.011-.041-1.923-.3-2.719-.934A4.02 4.02 0 0 1 .377 2.895c.47-1.562 1.86-2.711 3.47-2.87C5.952-.183 7.842 1.066 8.333 2.99c.176.69.134.753-.576.851a7.11 7.11 0 0 1-.416.043c-.753.06-.753.06-1.091-.648a2.108 2.108 0 0 0-2.535-1.114 2.012 2.012 0 0 0-1.433 2.189c.113.937.91 1.652 1.958 1.755.36.035.73.028 1.08.11 1.52.361 2.57 1.282 3.162 2.73.183.447.21.452.543.131.805-.774 1.61-1.55 2.4-2.34 2.6-2.603 6.843-1.451 7.9 1.94.016.054.037.106.047.16.056.312.202.275.382.1.763-.737 1.531-1.47 2.287-2.215.718-.707 1.564-1.167 2.558-1.332 1.849-.307 3.334.366 4.562 1.72.217.24.175.44-.035.651-1.185 1.186-2.37 2.371-3.548 3.562-.255.257-.469.229-.71-.017-1.298-1.322-1.198-.922-.1-2.067.444-.463.912-.905 1.353-1.372.234-.247.191-.34-.149-.433-1.387-.375-2.915.632-3.195 2.105-.284 1.497.8 2.982 2.293 3.143.925.099 1.693-.201 2.342-.868 1.616-1.662 3.249-3.308 4.866-4.968.723-.742 1.566-1.241 2.59-1.44 1.34-.26 2.551.037 3.656.804.579.403.573.48.06 1.016-.038.04-.076.082-.118.118-.25.218-.476.552-.762.616-.232.053-.538-.217-.811-.344a2.675 2.675 0 0 0-3.34.915c-.749 1.097-.56 2.627.432 3.504a2.69 2.69 0 0 0 3.465.07c.193-.158.365-.345.538-.526 1.063-1.109 2.106-2.238 3.195-3.32.43-.427.624-.861.61-1.473-.039-1.62-.01-3.24-.015-4.86-.003-.714-.002-.799.752-.88 1.428-.152 1.29-.148 1.291 1.135.001.977-.007 1.955.005 2.932.006.499.022.51.524.52.614.013 1.229-.007 1.843.008.483.012.546.06.546.526 0 1.83.195 1.465-1.412 1.503-.363.008-.726.01-1.089.001-.276-.007-.415.105-.414.39.002 1.423-.001 2.848.007 4.272 0 .096.073.191.113.287.097-.042.215-.061.287-.13.262-.251.509-.518.76-.78 1.568-1.63 3.12-3.278 4.708-4.888 2.6-2.634 6.907-1.647 7.958 1.824.159.526.197 1.096.229 1.65.038.668.007 1.34.016 2.01.001.105.056.209.086.313.117-.059.263-.091.346-.181.435-.473.854-.96 1.278-1.442 1.2-1.362 2.39-2.734 3.602-4.084 1.527-1.701 3.925-2.09 5.873-.971.217.124.418.277.621.424.294.213.3.44.028.683-.125.111-.237.237-.356.355-.636.637-.636.637-1.436.244a2.684 2.684 0 0 0-3.412.896c-.74 1.09-.54 2.639.451 3.505a2.69 2.69 0 0 0 3.53-.008c.126-.11.241-.232.356-.354 1.457-1.544 2.906-3.095 4.375-4.626.294-.307.421-.618.413-1.041-.02-1.145-.037-2.291.009-3.435.057-1.433 1.184-2.508 2.608-2.543 1.142-.028 2.017.463 2.519 1.482.513 1.042.417 2.081-.35 2.974a39.97 39.97 0 0 1-2.239 2.379c-.39.385-.54.79-.525 1.332.034 1.2.005 2.401.015 3.602.002.27.06.538.092.807.237-.174.502-.318.704-.525 1.674-1.722 3.34-3.453 5.002-5.186.714-.745 1.543-1.275 2.569-1.48 1.914-.383 3.448.284 4.729 1.68.217.238.193.432-.023.648a882.369 882.369 0 0 0-3.549 3.56c-.248.251-.461.254-.71.002-1.309-1.327-1.196-.94-.115-2.07.444-.465.912-.906 1.355-1.372.25-.264.22-.34-.124-.435-1.387-.385-2.948.626-3.21 2.077-.277 1.54.756 2.987 2.26 3.163.958.112 1.744-.21 2.41-.905 1.874-1.956 3.762-3.899 5.644-5.847l.47-.478c.196-.203.392-.2.568.018 1.037 1.278 2.081 2.55 3.099 3.844.31.395.279.426.65.058.298-.295.586-.598.876-.901.21-.221.4-.224.649-.025 1.197.964 1.207 1.039.141 2.147-.987 1.026-1.956 2.071-2.963 3.078-1.15 1.149-2.853 1.407-4.25.68a4.382 4.382 0 0 1-.627-.414c-.19-.145-.195-.331-.03-.504.23-.243.482-.467.703-.718.27-.306.515-.42.93-.186.554.312 1.133.226 1.652-.159.782-.58.963-1.409.396-2.2-.438-.61-.973-1.149-1.466-1.72-.221-.256-.383-.095-.546.078l-1.846 1.944c-.866.912-1.721 1.833-2.598 2.733-2.549 2.62-6.582 1.826-7.94-1.556-.032-.078-.05-.16-.076-.24-.083-.241-.211-.314-.413-.108l-.409.42c-.737.764-1.478 1.524-2.21 2.292-.695.726-1.537.927-2.448.567-.916-.362-1.382-1.1-1.383-2.098 0-.865.02-1.73.023-2.597 0-.096-.052-.193-.08-.29-.09.06-.197.102-.267.179-.714.785-1.422 1.575-2.132 2.364-.355.395-.699.8-1.068 1.18C67.83 15.65 63.882 14.99 62.47 12c-.048-.1-.089-.205-.134-.307-.21-.47-.217-.476-.58-.071-.522.582-1.033 1.174-1.55 1.761-.184.21-.362.427-.558.624-.885.89-2.131.937-3.097.127-.455-.383-.455-.383-.96-.092-2.58 1.481-5.712.416-6.83-2.324-.032-.077-.05-.16-.08-.238-.187-.457-.208-.47-.538-.134-.704.717-1.396 1.447-2.092 2.172-.174.181-.345.366-.524.543-.668.656-1.474.806-2.32.495-.857-.315-1.344-.984-1.408-1.908-.037-.528-.012-1.06-.032-1.59-.004-.092-.093-.18-.143-.27-.068.042-.15.073-.204.13-.776.803-1.53 1.63-2.327 2.412-1.36 1.335-2.993 1.683-4.793 1.145-1.358-.407-2.306-1.324-2.876-2.623-.078-.179-.134-.367-.198-.55-.084-.241-.188-.316-.398-.095-.637.667-1.286 1.321-1.928 1.982-.984 1.014-2.169 1.562-3.594 1.507-2.008-.077-3.417-1.06-4.25-2.88a4.326 4.326 0 0 1-.124-.312c-.234-.64-.236-.643-.753-.144-.684.658-1.366 1.319-2.046 1.982a4.752 4.752 0 0 1-2.078 1.206c-.08.022-.16.05-.242.066-.906.189-.997.112-1.001-.836 0-.14-.003-.28 0-.42.015-.582.016-.582.624-.76 1.97-.577 2.703-2.836 1.39-4.326-.75-.85-1.695-1.152-2.8-.828-1.055.309-1.82 1.212-1.864 2.33-.053 1.338-.013 2.68-.013 4.02h-.025" fill="#FFF" mask="url(#b)"/></g></svg>